<svg xmlns="http://www.w3.org/2000/svg" width="600" height="600" viewBox="0 0 600 600">
  <rect width="600" height="600" fill="#EFE6D6" rx="24"/>
  <rect x="220" y="100" width="160" height="280" fill="#0F766E" rx="20"/>
  <rect x="240" y="90" width="120" height="30" fill="#164E4A" rx="8"/>
  <rect x="230" y="125" width="140" height="10" fill="#FAF7F0" opacity="0.3" rx="4"/>
  <!-- Drop icon -->
  <path d="M 300 170 C 300 170 270 210 270 235 C 270 251 284 265 300 265 C 316 265 330 251 330 235 C 330 210 300 170 300 170 Z" fill="#FAF7F0"/>
  <!-- Label area -->
  <rect x="240" y="290" width="120" height="70" fill="#FAF7F0" opacity="0.15" rx="8"/>
  <text x="300" y="318" font-family="sans-serif" font-size="11" fill="#FAF7F0" text-anchor="middle">B71'* 'DB1FAD</text>
  <text x="300" y="340" font-family="sans-serif" font-size="11" fill="#FAF7F0" text-anchor="middle">H'DF9F'9</text>
  <!-- Leaves decoration -->
  <ellipse cx="180" cy="200" rx="35" ry="12" fill="#0F766E" opacity="0.4" transform="rotate(-40 180 200)"/>
  <ellipse cx="420" cy="200" rx="35" ry="12" fill="#0F766E" opacity="0.4" transform="rotate(40 420 200)"/>
  <ellipse cx="180" cy="400" rx="25" ry="10" fill="#D99A2B" opacity="0.35" transform="rotate(20 180 400)"/>
  <ellipse cx="420" cy="400" rx="25" ry="10" fill="#D99A2B" opacity="0.35" transform="rotate(-20 420 400)"/>
  <!-- Bottom text -->
  <text x="300" y="490" font-family="sans-serif" font-size="16" font-weight="bold" fill="#164E4A" text-anchor="middle">B71'* 'DFA3 'DEF*94</text>
  <text x="300" y="515" font-family="sans-serif" font-size="12" fill="#647067" text-anchor="middle">#7D3 (JH1</text>
</svg>
