<svg xmlns="http://www.w3.org/2000/svg" width="800" height="450" viewBox="0 0 800 450">
  <defs>
    <linearGradient id="nailbg" x1="0%" y1="0%" x2="100%" y2="100%">
      <stop offset="0%" style="stop-color:#FAF7F0"/>
      <stop offset="100%" style="stop-color:#EFE6D6"/>
    </linearGradient>
  </defs>
  <rect width="800" height="450" fill="url(#nailbg)" rx="24"/>
  <!-- Hand fingers (simplified) -->
  <rect x="280" y="170" width="38" height="110" fill="#EFE6D6" rx="19" stroke="#E5DED1" stroke-width="1.5"/>
  <rect x="328" y="150" width="38" height="130" fill="#EFE6D6" rx="19" stroke="#E5DED1" stroke-width="1.5"/>
  <rect x="376" y="145" width="38" height="135" fill="#EFE6D6" rx="19" stroke="#E5DED1" stroke-width="1.5"/>
  <rect x="424" y="158" width="38" height="122" fill="#EFE6D6" rx="19" stroke="#E5DED1" stroke-width="1.5"/>
  <rect x="472" y="175" width="35" height="105" fill="#EFE6D6" rx="17" stroke="#E5DED1" stroke-width="1.5"/>
  <!-- Nails -->
  <rect x="284" y="174" width="30" height="26" fill="#D99A2B" opacity="0.4" rx="14"/>
  <rect x="332" y="154" width="30" height="26" fill="#D99A2B" opacity="0.4" rx="14"/>
  <rect x="380" y="149" width="30" height="26" fill="#D99A2B" opacity="0.4" rx="14"/>
  <rect x="428" y="162" width="30" height="26" fill="#D99A2B" opacity="0.4" rx="14"/>
  <rect x="475" y="179" width="28" height="24" fill="#D99A2B" opacity="0.4" rx="12"/>
  <!-- Sparkles -->
  <text x="260" y="165" font-size="18" fill="#D99A2B">&</text>
  <text x="510" y="155" font-size="14" fill="#0F766E" opacity="0.7">&</text>
  <text x="540" y="220" font-size="16" fill="#D99A2B" opacity="0.6">&</text>
  <!-- Text -->
  <text x="400" y="360" font-family="sans-serif" font-size="22" font-weight="bold" fill="#164E4A" text-anchor="middle">#8'A1 #FJB) CD JHE</text>
  <text x="400" y="390" font-family="sans-serif" font-size="14" fill="#647067" text-anchor="middle">3J1HE 'D+HE H'D.D  #7D3 (JH1</text>
</svg>
