<svg xmlns="http://www.w3.org/2000/svg" width="600" height="600" viewBox="0 0 600 600">
  <rect width="600" height="600" fill="#EFE6D6" rx="24"/>
  <!-- Serum bottle -->
  <rect x="255" y="130" width="90" height="250" fill="#164E4A" rx="12"/>
  <!-- Dropper top -->
  <rect x="270" y="100" width="60" height="40" fill="#0F766E" rx="8"/>
  <rect x="286" y="75" width="28" height="35" fill="#0F766E" rx="5"/>
  <!-- Dropper tip -->
  <polygon points="300,75 295,55 305,55" fill="#FAF7F0"/>
  <!-- Drop falling -->
  <path d="M 300 58 C 300 58 295 68 295 73 C 295 76 297 78 300 78 C 303 78 305 76 305 73 C 305 68 300 58 300 58 Z" fill="#FAF7F0" opacity="0.8"/>
  <!-- Label -->
  <rect x="268" y="210" width="64" height="80" fill="#FAF7F0" opacity="0.12" rx="6"/>
  <text x="300" y="240" font-family="sans-serif" font-size="9" fill="#FAF7F0" text-anchor="middle">3J1HE</text>
  <text x="300" y="256" font-family="sans-serif" font-size="9" fill="#FAF7F0" text-anchor="middle">'D+HE H'D.D</text>
  <!-- Nail shapes decoration -->
  <ellipse cx="160" cy="280" rx="22" ry="28" fill="#D99A2B" opacity="0.25" rx="10"/>
  <ellipse cx="440" cy="280" rx="22" ry="28" fill="#D99A2B" opacity="0.25" rx="10"/>
  <ellipse cx="160" cy="380" rx="18" ry="22" fill="#0F766E" opacity="0.2"/>
  <ellipse cx="440" cy="380" rx="18" ry="22" fill="#0F766E" opacity="0.2"/>
  <!-- Bottom text -->
  <text x="300" y="490" font-family="sans-serif" font-size="16" font-weight="bold" fill="#164E4A" text-anchor="middle">3J1HE 'D#8'A1 'D7(J9J</text>
  <text x="300" y="515" font-family="sans-serif" font-size="12" fill="#647067" text-anchor="middle">#7D3 (JH1</text>
</svg>
